<svg xmlns="http://www.w3.org/2000/svg" xmlns:xlink="http://www.w3.org/1999/xlink" class="sgl" data-sgl="1.0" width="168" height="36" viewBox="0 0 168 36" role="img" aria-labelledby="sgl-t sgl-d"><title id="sgl-t">Diagram</title><desc id="sgl-d">2 nodes, 7 connections, 0 groups.</desc><style>.canvas{fill:#F7F8FA}
.c-shape,.n-shape{stroke-linejoin:round}
.e-path{fill:none;stroke-linecap:round}
.el-plate{stroke:none}
.n-port{stroke:none}
text{white-space:pre}
.g-8ab423a0{stroke-width:1.5px}
.g-c4cad93e{font-family:Inter, system-ui, -apple-system, &apos;Segoe UI&apos;, Roboto, sans-serif;font-size:13px;font-weight:500}
.g-d7aeceec{font-family:Inter, system-ui, -apple-system, &apos;Segoe UI&apos;, Roboto, sans-serif;font-size:11px;font-weight:400}
.p-971b4d83dddb1b8a{fill:#F7F8FA}
.s-971b4d83dddb1b8a{stroke:#8A96A8}
.s-fd9a5e415fda65de{fill:#FFFFFF;stroke:#8A96A8}
.t-3a61febfdc44ff9d{fill:#1B2330}
.t-f65d281014bb5a7e{fill:#5B6675}</style><defs><marker id="m-triangle-bfac01a3" markerUnits="userSpaceOnUse" markerWidth="8" markerHeight="6" refX="0" refY="3" orient="auto"><path d="M0 0L8 3L0 6Z" fill="#8A96A8" /></marker><marker id="m-triangle-s-bfac01a3" markerUnits="userSpaceOnUse" markerWidth="8" markerHeight="6" refX="8" refY="3" orient="auto"><path d="M0 0L8 3L0 6Z" fill="#8A96A8" transform="rotate(180 4 3)"/></marker></defs><rect class="canvas" x="0" y="0" width="168" height="36" aria-hidden="true"/><g class="L-containers"></g><g class="L-edges"><g id="e-c338aaaef4585103" class="e" role="graphics-symbol" aria-label="a to a"><path class="e-path g-8ab423a0 s-971b4d83dddb1b8a" d="M54 0C73.203 -9.594 69.594 -25.203 74.406 -10.797C86.406 -3.594 81.594 8.406 79.203 22.797C76.797 37.203 93.063 32.031 78.656 22.438" marker-end="url(#m-triangle-bfac01a3)"/></g><g id="e-c338a9aef4584f50" class="e" role="graphics-symbol" aria-label="a to a: twice"><path class="e-path g-8ab423a0 s-971b4d83dddb1b8a" d="M54 0C73.203 -9.594 69.594 -25.203 74.406 -10.797C86.406 -3.594 81.594 8.406 79.203 22.797C76.797 37.203 93.063 32.031 78.656 22.438" marker-end="url(#m-triangle-bfac01a3)"/></g><g id="e-43cd40b7c998acd4" class="e" role="graphics-symbol" aria-label="a to b"><path class="e-path g-8ab423a0 s-971b4d83dddb1b8a" d="M72 18L88 18" marker-end="url(#m-triangle-bfac01a3)"/></g><g id="e-43cd41b7c998ae87" class="e" role="graphics-symbol" aria-label="a to b"><path class="e-path g-8ab423a0 s-971b4d83dddb1b8a" d="M72 18L88 18" marker-end="url(#m-triangle-bfac01a3)"/></g><g id="e-43cd42b7c998b03a" class="e" role="graphics-symbol" aria-label="a to b: third"><path class="e-path g-8ab423a0 s-971b4d83dddb1b8a" d="M72 18L88 18" marker-end="url(#m-triangle-bfac01a3)"/></g><g id="e-363a0deebc7e54e2" class="e" role="graphics-symbol" aria-label="a to b"><path class="e-path g-8ab423a0 s-971b4d83dddb1b8a" d="M80 18L88 18" marker-end="url(#m-triangle-bfac01a3)" marker-start="url(#m-triangle-s-bfac01a3)"/></g><g id="e-a5d657184404e66e" class="e" role="graphics-symbol" aria-label="b and b"><path class="e-path g-8ab423a0 s-971b4d83dddb1b8a" d="M150 0C169.203 -9.594 165.594 -25.203 170.406 -10.797C182.406 -3.594 177.594 8.406 175.203 22.797C172.797 37.203 182.406 27.594 168 18"/></g></g><g class="L-nodes"><g id="n-a" class="n sh-rect" role="group" aria-label="a"><path class="n-shape g-8ab423a0 s-fd9a5e415fda65de" d="M 0 0 h 72 v 36 h -72 Z"/><text class="n-title g-c4cad93e t-3a61febfdc44ff9d" x="36.008" y="19.95" text-anchor="middle" xml:space="preserve" aria-hidden="true"><tspan x="36.008" dy="0">a</tspan></text></g><g id="n-b" class="n sh-rect" role="group" aria-label="b"><path class="n-shape g-8ab423a0 s-fd9a5e415fda65de" d="M 96 0 h 72 v 36 h -72 Z"/><text class="n-title g-c4cad93e t-3a61febfdc44ff9d" x="132.008" y="19.95" text-anchor="middle" xml:space="preserve" aria-hidden="true"><tspan x="132.008" dy="0">b</tspan></text></g></g><g class="L-labels"><g class="el" aria-hidden="true"><rect class="el-plate p-971b4d83dddb1b8a" x="59.188" y="23.922" width="25.063" height="14.297" aria-hidden="true"/><text class="el-text g-d7aeceec t-f65d281014bb5a7e" x="71.719" y="32.72" text-anchor="middle" xml:space="preserve" aria-hidden="true"><tspan x="71.719" dy="0">twice</tspan></text></g><g class="el" aria-hidden="true"><rect class="el-plate p-971b4d83dddb1b8a" x="69.297" y="22" width="21.391" height="14.297" aria-hidden="true"/><text class="el-text g-d7aeceec t-f65d281014bb5a7e" x="79.992" y="30.798" text-anchor="middle" xml:space="preserve" aria-hidden="true"><tspan x="79.992" dy="0">third</tspan></text></g></g></svg>
