<svg xmlns="http://www.w3.org/2000/svg" xmlns:xlink="http://www.w3.org/1999/xlink" class="sgl" data-sgl="1.0" width="210.203" height="86.859" viewBox="0 0 210.203 86.859" role="img" aria-labelledby="sgl-t sgl-d"><title id="sgl-t">Diagram</title><desc id="sgl-d">2 nodes, 7 connections, 0 groups.</desc><style>.canvas{fill:#F7F8FA}
.c-shape,.n-shape{stroke-linejoin:round}
.e-path{fill:none;stroke-linecap:round}
.el-plate{stroke:none}
.n-port{stroke:none}
text{white-space:pre}
.g-8ab423a0{stroke-width:1.5px}
.g-c4cad93e{font-family:Inter, system-ui, -apple-system, &apos;Segoe UI&apos;, Roboto, sans-serif;font-size:13px;font-weight:500}
.g-d7aeceec{font-family:Inter, system-ui, -apple-system, &apos;Segoe UI&apos;, Roboto, sans-serif;font-size:11px;font-weight:400}
.mf-61761734cd8c29d8{fill:#8A96A8}
.p-61761734cd8c29d8{fill:#F7F8FA}
.s-61761734cd8c29d8{stroke:#8A96A8}
.s-f87f15f458f0b195{fill:#FFFFFF;stroke:#8A96A8}
.t-5e011169d32131cb{fill:#1B2330}
.t-e96d5fe92f4c4358{fill:#5B6675}</style><defs><marker id="m-triangle-8-61761734cd8c29d8" markerUnits="userSpaceOnUse" markerWidth="8" markerHeight="6" refX="0" refY="3" orient="auto"><path class="mf-61761734cd8c29d8" d="M0 0L8 3L0 6Z" /></marker><marker id="m-triangle-s-8-61761734cd8c29d8" markerUnits="userSpaceOnUse" markerWidth="8" markerHeight="6" refX="8" refY="3" orient="auto"><path class="mf-61761734cd8c29d8" d="M0 0L8 3L0 6Z" transform="rotate(180 4 3)"/></marker></defs><rect class="canvas" x="0" y="0" width="210.203" height="86.859" aria-hidden="true"/><g class="L-containers"></g><g class="L-edges"><g id="e-c338aaaef4585103" class="e" role="graphics-symbol" aria-label="a to a"><path class="e-path g-8ab423a0 s-61761734cd8c29d8" d="M70 32.641C89.203 23.047 85.594 7.438 90.406 21.844C102.406 29.047 97.594 41.047 95.203 55.438C92.797 69.844 109.063 64.672 94.656 55.078" marker-end="url(#m-triangle-8-61761734cd8c29d8)"/></g><g id="e-c338a9aef4584f50" class="e" role="graphics-symbol" aria-label="a to a: twice"><path class="e-path g-8ab423a0 s-61761734cd8c29d8" d="M70 32.641C89.203 23.047 85.594 7.438 90.406 21.844C102.406 29.047 97.594 41.047 95.203 55.438C92.797 69.844 109.063 64.672 94.656 55.078" marker-end="url(#m-triangle-8-61761734cd8c29d8)"/></g><g id="e-43cd40b7c998acd4" class="e" role="graphics-symbol" aria-label="a to b"><path class="e-path g-8ab423a0 s-61761734cd8c29d8" d="M88 50.641L104 50.641" marker-end="url(#m-triangle-8-61761734cd8c29d8)"/></g><g id="e-43cd41b7c998ae87" class="e" role="graphics-symbol" aria-label="a to b"><path class="e-path g-8ab423a0 s-61761734cd8c29d8" d="M88 50.641L104 50.641" marker-end="url(#m-triangle-8-61761734cd8c29d8)"/></g><g id="e-43cd42b7c998b03a" class="e" role="graphics-symbol" aria-label="a to b: third"><path class="e-path g-8ab423a0 s-61761734cd8c29d8" d="M88 50.641L104 50.641" marker-end="url(#m-triangle-8-61761734cd8c29d8)"/></g><g id="e-363a0deebc7e54e2" class="e" role="graphics-symbol" aria-label="a to b"><path class="e-path g-8ab423a0 s-61761734cd8c29d8" d="M96 50.641L104 50.641" marker-end="url(#m-triangle-8-61761734cd8c29d8)" marker-start="url(#m-triangle-s-8-61761734cd8c29d8)"/></g><g id="e-a5d657184404e66e" class="e" role="graphics-symbol" aria-label="b and b"><path class="e-path g-8ab423a0 s-61761734cd8c29d8" d="M166 32.641C185.203 23.047 181.594 7.438 186.406 21.844C198.406 29.047 193.594 41.047 191.203 55.438C188.797 69.844 198.406 60.234 184 50.641"/></g></g><g class="L-nodes"><g id="n-a" class="n sh-rect" role="group" aria-label="a"><path class="n-shape g-8ab423a0 s-f87f15f458f0b195" d="M 16 32.641 h 72 v 36 h -72 Z"/><text class="n-title g-c4cad93e t-5e011169d32131cb" x="52.008" y="52.591" text-anchor="middle" xml:space="preserve" aria-hidden="true"><tspan x="52.008" dy="0">a</tspan></text></g><g id="n-b" class="n sh-rect" role="group" aria-label="b"><path class="n-shape g-8ab423a0 s-f87f15f458f0b195" d="M 112 32.641 h 72 v 36 h -72 Z"/><text class="n-title g-c4cad93e t-5e011169d32131cb" x="148.008" y="52.591" text-anchor="middle" xml:space="preserve" aria-hidden="true"><tspan x="148.008" dy="0">b</tspan></text></g></g><g class="L-labels"><g class="el" aria-hidden="true"><rect class="el-plate p-61761734cd8c29d8" x="75.188" y="56.563" width="25.063" height="14.297" aria-hidden="true"/><text class="el-text g-d7aeceec t-e96d5fe92f4c4358" x="87.719" y="65.361" text-anchor="middle" xml:space="preserve" aria-hidden="true"><tspan x="87.719" dy="0">twice</tspan></text></g><g class="el" aria-hidden="true"><rect class="el-plate p-61761734cd8c29d8" x="85.297" y="54.641" width="21.391" height="14.297" aria-hidden="true"/><text class="el-text g-d7aeceec t-e96d5fe92f4c4358" x="95.992" y="63.439" text-anchor="middle" xml:space="preserve" aria-hidden="true"><tspan x="95.992" dy="0">third</tspan></text></g></g></svg>
