<svg xmlns="http://www.w3.org/2000/svg" xmlns:xlink="http://www.w3.org/1999/xlink" class="sgl" data-sgl="1.0" width="338.578" height="184.594" viewBox="0 0 338.578 184.594" role="img" aria-labelledby="sgl-t sgl-d"><title id="sgl-t">Diagram</title><desc id="sgl-d">7 nodes, 6 connections, 0 groups.</desc><style>svg.sgl{--sgl-canvas:#F7F8FA;--accent:#1F5F80;--bg:#F7F8FA;--danger:#A8323F;--font-sans:Inter, system-ui, -apple-system, &apos;Segoe UI&apos;, Roboto, sans-serif;--ink:#1B2330;--ink-muted:#5B6675;--line:#8A96A8;--surface:#FFFFFF;--surface-sunken:#EEF1F5}
.canvas{fill:var(--sgl-canvas)}
.c-shape,.n-shape{stroke-linejoin:round}
.e-path{fill:none;stroke-linecap:round}
.el-plate{stroke:none}
.n-port{stroke:none}
text{white-space:pre}
.g-8ab423a0{stroke-width:1.5px}
.g-c4cad93e{font-family:Inter, system-ui, -apple-system, &apos;Segoe UI&apos;, Roboto, sans-serif;font-size:13px;font-weight:500}
.s-971b4d83dddb1b8a{stroke:#8A96A8}
.s-fd9a5e415fda65de{fill:#FFFFFF;stroke:#8A96A8}
.s-ff3c09745483fefc{fill:#EEF1F5;stroke:#8A96A8}
.t-3a61febfdc44ff9d{fill:#1B2330}</style><defs><marker id="m-triangle-bfac01a3" markerUnits="userSpaceOnUse" markerWidth="8" markerHeight="6" refX="8" refY="3" orient="auto"><path d="M0 0L8 3L0 6Z" fill="#8A96A8" /></marker></defs><rect class="canvas" x="0" y="0" width="338.578" height="184.594" aria-hidden="true"/><g class="L-containers"></g><g class="L-edges"><g id="e-f91c1eaffada002d" class="e" role="graphics-symbol" aria-label="r to n"><path class="e-path g-8ab423a0 s-971b4d83dddb1b8a" d="M97.859 19.953L149.094 19.953" marker-end="url(#m-triangle-bfac01a3)"/></g><g id="e-c42f1463e6ce666e" class="e" role="graphics-symbol" aria-label="n to e"><path class="e-path g-8ab423a0 s-971b4d83dddb1b8a" d="M229.094 19.953L254.484 19.953" marker-end="url(#m-triangle-bfac01a3)"/></g><g id="e-089b59e4c2559d5a" class="e" role="graphics-symbol" aria-label="e to d"><path class="e-path g-8ab423a0 s-971b4d83dddb1b8a" d="M267.188 29.563L105.578 76.188" marker-end="url(#m-triangle-bfac01a3)"/></g><g id="e-b8b94d9c87b423ed" class="e" role="graphics-symbol" aria-label="d to h"><path class="e-path g-8ab423a0 s-971b4d83dddb1b8a" d="M123.703 88.797L139.703 88.797" marker-end="url(#m-triangle-bfac01a3)"/></g><g id="e-27869b874f0eb5ce" class="e" role="graphics-symbol" aria-label="h to c"><path class="e-path g-8ab423a0 s-971b4d83dddb1b8a" d="M238.484 88.797L256.531 88.797" marker-end="url(#m-triangle-bfac01a3)"/></g><g id="e-1d5f2fb993e74410" class="e" role="graphics-symbol" aria-label="c to p"><path class="e-path g-8ab423a0 s-971b4d83dddb1b8a" d="M264.531 99.719L106.078 147.75" marker-end="url(#m-triangle-bfac01a3)"/></g></g><g class="L-nodes"><g id="n-r" class="n sh-rect" role="group" aria-label="rect"><path class="n-shape g-8ab423a0 s-fd9a5e415fda65de" d="M 25.859 1.953 h 72 v 36 h -72 Z"/><text class="n-title g-c4cad93e t-3a61febfdc44ff9d" x="61.852" y="21.9" text-anchor="middle" xml:space="preserve" aria-hidden="true"><tspan x="61.852" dy="0">rect</tspan></text></g><g id="n-n" class="n sh-round" role="group" aria-label="round"><path class="n-shape g-8ab423a0 s-fd9a5e415fda65de" d="M 163.094 1.953 H 223.094 a 6 6 0 0 1 6 6 V 31.953 a 6 6 0 0 1 -6 6 H 163.094 a 6 6 0 0 1 -6 -6 V 7.953 a 6 6 0 0 1 6 -6 Z"/><text class="n-title g-c4cad93e t-3a61febfdc44ff9d" x="193.086" y="21.9" text-anchor="middle" xml:space="preserve" aria-hidden="true"><tspan x="193.086" dy="0">round</tspan></text></g><g id="n-e" class="n sh-ellipse" role="group" aria-label="ellipse"><path class="n-shape g-8ab423a0 s-fd9a5e415fda65de" d="M 262.484 19.953 A 38.055 19.953 0 0 1 338.594 19.953 A 38.055 19.953 0 0 1 262.484 19.953 Z"/><text class="n-title g-c4cad93e t-3a61febfdc44ff9d" x="300.531" y="21.9" text-anchor="middle" xml:space="preserve" aria-hidden="true"><tspan x="300.531" dy="0">ellipse</tspan></text></g><g id="n-d" class="n sh-diamond" role="group" aria-label="diamond"><path class="n-shape g-8ab423a0 s-fd9a5e415fda65de" d="M 61.852 63.906 L 123.703 88.805 L 61.852 113.703 L 0 88.805 Z"/><text class="n-title g-c4cad93e t-3a61febfdc44ff9d" x="61.852" y="90.744" text-anchor="middle" xml:space="preserve" aria-hidden="true"><tspan x="61.852" dy="0">diamond</tspan></text></g><g id="n-h" class="n sh-hexagon" role="group" aria-label="hexagon"><path class="n-shape g-8ab423a0 s-fd9a5e415fda65de" d="M 165.703 70.797 L 220.469 70.797 L 238.469 88.797 L 220.469 106.797 L 165.703 106.797 L 147.703 88.797 Z"/><text class="n-title g-c4cad93e t-3a61febfdc44ff9d" x="193.094" y="90.744" text-anchor="middle" xml:space="preserve" aria-hidden="true"><tspan x="193.094" dy="0">hexagon</tspan></text></g><g id="n-c" class="n sh-cylinder" role="group" aria-label="cylinder"><path class="n-shape g-8ab423a0 s-ff3c09745483fefc" d="M 264.531 71.906 A 36 8 0 0 1 336.531 71.906 L 336.531 105.703 A 36 8 0 0 1 264.531 105.703 Z M 336.531 71.906 A 36 8 0 0 1 264.531 71.906"/><text class="n-title g-c4cad93e t-3a61febfdc44ff9d" x="300.531" y="93.572" text-anchor="middle" xml:space="preserve" aria-hidden="true"><tspan x="300.531" dy="0">cylinder</tspan></text></g><g id="n-p" class="n sh-package" role="group" aria-label="package"><path class="n-shape g-8ab423a0 s-fd9a5e415fda65de" d="M 25.281 137.703 L 50.88 137.703 L 50.88 151.703 L 98.422 151.703 L 98.422 184.609 L 25.281 184.609 Z"/><text class="n-title g-c4cad93e t-3a61febfdc44ff9d" x="61.852" y="170.103" text-anchor="middle" xml:space="preserve" aria-hidden="true"><tspan x="61.852" dy="0">package</tspan></text></g></g><g class="L-labels"></g></svg>
