<svg xmlns="http://www.w3.org/2000/svg" xmlns:xlink="http://www.w3.org/1999/xlink" class="sgl" data-sgl="1.0" width="456" height="322.797" viewBox="0 0 456 322.797" role="img" aria-labelledby="sgl-t sgl-d"><title id="sgl-t">Checkout Flow</title><desc id="sgl-d">9 nodes, 6 connections, 2 groups.</desc><style>.canvas{fill:#0E131C}
.c-shape,.n-shape{stroke-linejoin:round}
.e-path{fill:none;stroke-linecap:round}
.el-plate{stroke:none}
.n-port{stroke:none}
text{white-space:pre}
.g-8ab423a0{stroke-width:1.5px}
.g-93de2877{font-family:Inter, system-ui, -apple-system, &apos;Segoe UI&apos;, Roboto, sans-serif;font-size:12px;font-weight:600}
.g-b5aa7f71{stroke-width:1px}
.g-c4cad93e{font-family:Inter, system-ui, -apple-system, &apos;Segoe UI&apos;, Roboto, sans-serif;font-size:13px;font-weight:500}
.g-d7aeceec{font-family:Inter, system-ui, -apple-system, &apos;Segoe UI&apos;, Roboto, sans-serif;font-size:11px;font-weight:400}
.mf-61761734cd8c29d8{fill:#4A5768}
.p-61761734cd8c29d8{fill:#0E131C}
.s-0968a19c8263b18a{fill:#171E2B;stroke:#4A5768}
.s-16958789d9beaa5f{fill:#171E2B;stroke:#DC2626}
.s-462bbae59cf3aafc{fill:#10161F;stroke:#4A5768}
.s-61761734cd8c29d8{stroke:#4A5768}
.s-c6374716574943ec{fill:#171E2B;stroke:#4A5768;stroke-dasharray:3 3}
.s-cab79a1f4f0494ca{fill:#10161F;stroke:#4A5768}
.t-39b3ff6f2ea1eb15{fill:#E4E9F1}
.t-af549eb2248aa800{fill:#A6B1C2}
.t-c0fd0ee9da283618{fill:#E4E9F1}
.t-c816c123224ef892{fill:#E4E9F1}
.t-d9ea3d3cc1ae8566{fill:#E4E9F1}
.t-e96d5fe92f4c4358{fill:#A6B1C2}</style><defs><marker id="m-triangle-8-61761734cd8c29d8" markerUnits="userSpaceOnUse" markerWidth="8" markerHeight="6" refX="0" refY="3" orient="auto"><path class="mf-61761734cd8c29d8" d="M0 0L8 3L0 6Z" /></marker></defs><rect class="canvas" x="0" y="0" width="456" height="322.797" aria-hidden="true"/><g class="L-containers"><g id="n-storefront" class="c" role="group" aria-label="Storefront"><path class="c-shape g-b5aa7f71 s-cab79a1f4f0494ca" d="M 240 16 h 200 v 89.594 h -200 Z"/><text class="c-title g-93de2877 t-af549eb2248aa800" x="256" y="41.6" text-anchor="start" xml:space="preserve" aria-hidden="true"><tspan x="256" dy="0">Storefront</tspan></text></g><g id="n-payments" class="c" role="group" aria-label="Payments"><path class="c-shape g-b5aa7f71 s-cab79a1f4f0494ca" d="M 16 129.594 h 200 v 177.203 h -200 Z"/><text class="c-title g-93de2877 t-af549eb2248aa800" x="32" y="155.194" text-anchor="start" xml:space="preserve" aria-hidden="true"><tspan x="32" dy="0">Payments</tspan></text></g></g><g class="L-edges"><g id="e-87441157bd4f5902" class="e" role="graphics-symbol" aria-label="edge to storefront.web"><path class="e-path g-8ab423a0 s-61761734cd8c29d8" d="M152 63.016L248.016 68.906" marker-end="url(#m-triangle-8-61761734cd8c29d8)"/></g><g id="e-9b7b78b27b104012" class="e" role="graphics-symbol" aria-label="storefront.bff to payments.api: POST /charge"><path class="e-path g-8ab423a0 s-61761734cd8c29d8" d="M352 85.156L111.484 175.719" marker-end="url(#m-triangle-8-61761734cd8c29d8)"/></g><g id="e-b226b1373bf1da7f" class="e" role="graphics-symbol" aria-label="payments.api to psp: authorise"><path class="e-path g-8ab423a0 s-61761734cd8c29d8" d="M104 195.547L296.031 213.984" marker-end="url(#m-triangle-8-61761734cd8c29d8)"/></g><g id="e-d20dab6abc46ae7d" class="e" role="graphics-symbol" aria-label="storefront.web to storefront.bff: GraphQL"><path class="e-path g-8ab423a0 s-61761734cd8c29d8" d="M328 71.594L344 71.594" marker-end="url(#m-triangle-8-61761734cd8c29d8)"/></g><g id="e-fee3fa2995887984" class="e" role="graphics-symbol" aria-label="payments.api to payments.ledger"><path class="e-path g-8ab423a0 s-61761734cd8c29d8" d="M104 192.094L120 192.094" marker-end="url(#m-triangle-8-61761734cd8c29d8)"/></g><g id="e-7cfa36e0eac91b9c" class="e" role="graphics-symbol" aria-label="payments.api to payments.outbox: async"><path class="e-path g-8ab423a0 s-61761734cd8c29d8" d="M68 210.094L68 233" marker-end="url(#m-triangle-8-61761734cd8c29d8)"/></g></g><g class="L-nodes"><g id="n-edge" class="n sh-rect External" role="group" aria-label="CDN"><path class="n-shape g-8ab423a0 s-c6374716574943ec" d="M 80 42.797 h 72 v 36 h -72 Z"/><text class="n-title g-c4cad93e t-c816c123224ef892" x="116" y="62.747" text-anchor="middle" xml:space="preserve" aria-hidden="true"><tspan x="116" dy="0">CDN</tspan></text></g><g id="n-storefront.web" class="n sh-round Service" role="group" aria-label="web"><path class="n-shape g-8ab423a0 s-0968a19c8263b18a" d="M 262 53.594 H 322 a 6 6 0 0 1 6 6 V 83.594 a 6 6 0 0 1 -6 6 H 262 a 6 6 0 0 1 -6 -6 V 59.594 a 6 6 0 0 1 6 -6 Z"/><text class="n-title g-c4cad93e t-c0fd0ee9da283618" x="292" y="73.559" text-anchor="middle" xml:space="preserve" aria-hidden="true"><tspan x="292" dy="0">web</tspan></text></g><g id="n-storefront.bff" class="n sh-round Service" role="group" aria-label="BFF"><path class="n-shape g-8ab423a0 s-0968a19c8263b18a" d="M 358 53.594 H 418 a 6 6 0 0 1 6 6 V 83.594 a 6 6 0 0 1 -6 6 H 358 a 6 6 0 0 1 -6 -6 V 59.594 a 6 6 0 0 1 6 -6 Z"/><text class="n-title g-c4cad93e t-c0fd0ee9da283618" x="388" y="73.559" text-anchor="middle" xml:space="preserve" aria-hidden="true"><tspan x="388" dy="0">BFF</tspan></text></g><g id="n-payments.api" class="n sh-round Service" role="group" aria-label="api"><path class="n-shape g-8ab423a0 s-16958789d9beaa5f" d="M 38 174.094 H 98 a 6 6 0 0 1 6 6 V 204.094 a 6 6 0 0 1 -6 6 H 38 a 6 6 0 0 1 -6 -6 V 180.094 a 6 6 0 0 1 6 -6 Z"/><text class="n-title g-c4cad93e t-39b3ff6f2ea1eb15" x="68" y="194.059" text-anchor="middle" xml:space="preserve" aria-hidden="true"><tspan x="68" dy="0">api</tspan></text></g><g id="n-payments.ledger" class="n sh-cylinder Store" role="group" aria-label="ledger"><path class="n-shape g-8ab423a0 s-462bbae59cf3aafc" d="M 128 175.203 A 36 8 0 0 1 200 175.203 L 200 209 A 36 8 0 0 1 128 209 Z M 200 175.203 A 36 8 0 0 1 128 175.203"/><text class="n-title g-c4cad93e t-d9ea3d3cc1ae8566" x="164" y="196.872" text-anchor="middle" xml:space="preserve" aria-hidden="true"><tspan x="164" dy="0">ledger</tspan></text></g><g id="n-payments.outbox" class="n sh-cylinder Store" role="group" aria-label="outbox"><path class="n-shape g-8ab423a0 s-462bbae59cf3aafc" d="M 32 249 A 36 8 0 0 1 104 249 L 104 282.797 A 36 8 0 0 1 32 282.797 Z M 104 249 A 36 8 0 0 1 32 249"/><text class="n-title g-c4cad93e t-d9ea3d3cc1ae8566" x="68" y="270.669" text-anchor="middle" xml:space="preserve" aria-hidden="true"><tspan x="68" dy="0">outbox</tspan></text></g><g id="n-psp" class="n sh-rect External" role="group" aria-label="Stripe"><path class="n-shape g-8ab423a0 s-c6374716574943ec" d="M 304 200.203 h 72 v 36 h -72 Z"/><text class="n-title g-c4cad93e t-c816c123224ef892" x="339.992" y="220.153" text-anchor="middle" xml:space="preserve" aria-hidden="true"><tspan x="339.992" dy="0">Stripe</tspan></text></g></g><g class="L-labels"><g class="el" aria-hidden="true"><rect class="el-plate p-61761734cd8c29d8" x="192.969" y="112.859" width="69.703" height="14.297" aria-hidden="true"/><text class="el-text g-d7aeceec t-e96d5fe92f4c4358" x="227.82" y="121.658" text-anchor="middle" xml:space="preserve" aria-hidden="true"><tspan x="227.82" dy="0">POST /charge</tspan></text></g><g class="el" aria-hidden="true"><rect class="el-plate p-61761734cd8c29d8" x="176.328" y="208.719" width="45.25" height="14.297" aria-hidden="true"/><text class="el-text g-d7aeceec t-e96d5fe92f4c4358" x="198.953" y="217.517" text-anchor="middle" xml:space="preserve" aria-hidden="true"><tspan x="198.953" dy="0">authorise</tspan></text></g><g class="el" aria-hidden="true"><rect class="el-plate p-61761734cd8c29d8" x="313.375" y="75.594" width="45.25" height="14.297" aria-hidden="true"/><text class="el-text g-d7aeceec t-e96d5fe92f4c4358" x="336" y="84.392" text-anchor="middle" xml:space="preserve" aria-hidden="true"><tspan x="336" dy="0">GraphQL</tspan></text></g><g class="el" aria-hidden="true"><rect class="el-plate p-61761734cd8c29d8" x="42.484" y="214.406" width="28.734" height="14.297" aria-hidden="true"/><text class="el-text g-d7aeceec t-e96d5fe92f4c4358" x="56.852" y="223.205" text-anchor="middle" xml:space="preserve" aria-hidden="true"><tspan x="56.852" dy="0">async</tspan></text></g></g></svg>
