<svg xmlns="http://www.w3.org/2000/svg" xmlns:xlink="http://www.w3.org/1999/xlink" class="sgl" data-sgl="1.0" width="304.547" height="156" viewBox="0 0 304.547 156" role="img" aria-labelledby="sgl-t sgl-d"><title id="sgl-t">Diagram</title><desc id="sgl-d">8 nodes, 4 connections, 0 groups.</desc><style>.canvas{fill:#0E131C}
.c-shape,.n-shape{stroke-linejoin:round}
.e-path{fill:none;stroke-linecap:round}
.el-plate{stroke:none}
.n-port{stroke:none}
text{white-space:pre}
.g-8ab423a0{stroke-width:1.5px}
.g-a3eb2971{stroke-width:3px}
.g-b5aa7f71{stroke-width:1px}
.g-c4cad93e{font-family:Inter, system-ui, -apple-system, &apos;Segoe UI&apos;, Roboto, sans-serif;font-size:13px;font-weight:500}
.s-1a7aa378d77c4fdd{fill:#171E2B;stroke:#123456}
.s-299cab0f630333bd{fill:#171E2B;stroke:#62A8CA}
.s-62dbc325121a789e{fill:#10161F;stroke:#E4737E}
.s-82c7018c3b8261a5{stroke:#4A5768}
.s-86ee3b02e54718d2{fill:#10161F;stroke:#62A8CA}
.s-cf7d5611ad0f41bd{fill:#171E2B;stroke:#4A5768}
.s-e2aef466dc244c86{fill:#10161F;stroke:#4A5768}
.s-e3619467c1bd3034{fill:#171E2B;stroke:#4A5768}
.t-00160cd658b988ec{fill:#E4E9F1}</style><style>svg.sgl{--sgl-canvas:#0E131C;--accent:#62A8CA;--bg:#0E131C;--danger:#E4737E;--font-sans:Inter, system-ui, -apple-system, &apos;Segoe UI&apos;, Roboto, sans-serif;--ink:#E4E9F1;--ink-muted:#A6B1C2;--line:#4A5768;--surface:#171E2B;--surface-sunken:#10161F}</style><defs><marker id="m-triangle-39720bfe" markerUnits="userSpaceOnUse" markerWidth="8" markerHeight="6" refX="0" refY="3" orient="auto"><path d="M0 0L8 3L0 6Z" fill="#4A5768" /></marker></defs><rect class="canvas" x="0" y="0" width="304.547" height="156" aria-hidden="true"/><g class="L-containers"></g><g class="L-edges"><g id="e-fe297c3f0d279af4" class="e" role="graphics-symbol" aria-label="plain to left"><path class="e-path g-8ab423a0 s-82c7018c3b8261a5" d="M72.922 18L109.203 18" marker-end="url(#m-triangle-39720bfe)"/></g><g id="e-2847a08bfb69307a" class="e" role="graphics-symbol" aria-label="left to diamond"><path class="e-path g-8ab423a0 s-82c7018c3b8261a5" d="M118.328 36L78.922 56.328" marker-end="url(#m-triangle-39720bfe)"/></g><g id="e-4de4a934f2ea2378" class="e" role="graphics-symbol" aria-label="right to both"><path class="e-path g-8ab423a0 s-82c7018c3b8261a5" d="M233.953 36L194.906 56.313" marker-end="url(#m-triangle-39720bfe)"/></g><g id="e-a3ae2354924ebedc" class="e" role="graphics-symbol" aria-label="both to override"><path class="e-path g-8ab423a0 s-82c7018c3b8261a5" d="M189.203 78L224.547 78" marker-end="url(#m-triangle-39720bfe)"/></g></g><g class="L-nodes"><g id="n-plain" class="n sh-round Base" role="group" aria-label="plain"><path class="n-shape g-b5aa7f71 s-cf7d5611ad0f41bd" d="M 6.922 0 H 66.922 a 6 6 0 0 1 6 6 V 30 a 6 6 0 0 1 -6 6 H 6.922 a 6 6 0 0 1 -6 -6 V 6 a 6 6 0 0 1 6 -6 Z"/><text class="n-title g-c4cad93e t-00160cd658b988ec" x="36.93" y="19.95" text-anchor="middle" xml:space="preserve" aria-hidden="true"><tspan x="36.93" dy="0">plain</tspan></text></g><g id="n-left" class="n sh-round Base Left" role="group" aria-label="left"><path class="n-shape g-b5aa7f71 s-e2aef466dc244c86" d="M 123.203 0 H 183.203 a 6 6 0 0 1 6 6 V 30 a 6 6 0 0 1 -6 6 H 123.203 a 6 6 0 0 1 -6 -6 V 6 a 6 6 0 0 1 6 -6 Z"/><text class="n-title g-c4cad93e t-00160cd658b988ec" x="153.203" y="19.95" text-anchor="middle" xml:space="preserve" aria-hidden="true"><tspan x="153.203" dy="0">left</tspan></text></g><g id="n-right" class="n sh-round Base Right" role="group" aria-label="right"><path class="n-shape g-b5aa7f71 s-299cab0f630333bd" d="M 238.547 0 H 298.547 a 6 6 0 0 1 6 6 V 30 a 6 6 0 0 1 -6 6 H 238.547 a 6 6 0 0 1 -6 -6 V 6 a 6 6 0 0 1 6 -6 Z"/><text class="n-title g-c4cad93e t-00160cd658b988ec" x="268.547" y="19.95" text-anchor="middle" xml:space="preserve" aria-hidden="true"><tspan x="268.547" dy="0">right</tspan></text></g><g id="n-diamond" class="n sh-round Left Base Right Diamond" role="group" aria-label="diamond"><path class="n-shape g-b5aa7f71 s-86ee3b02e54718d2" d="M 6 60 H 67.859 a 6 6 0 0 1 6 6 V 90 a 6 6 0 0 1 -6 6 H 6 a 6 6 0 0 1 -6 -6 V 66 a 6 6 0 0 1 6 -6 Z"/><text class="n-title g-c4cad93e t-00160cd658b988ec" x="36.93" y="79.95" text-anchor="middle" xml:space="preserve" aria-hidden="true"><tspan x="36.93" dy="0">diamond</tspan></text></g><g id="n-both" class="n sh-round Left Base Right Diamond Critical" role="group" aria-label="both"><path class="n-shape g-a3eb2971 s-62dbc325121a789e" d="M 123.203 60 H 183.203 a 6 6 0 0 1 6 6 V 90 a 6 6 0 0 1 -6 6 H 123.203 a 6 6 0 0 1 -6 -6 V 66 a 6 6 0 0 1 6 -6 Z"/><text class="n-title g-c4cad93e t-00160cd658b988ec" x="153.195" y="79.95" text-anchor="middle" xml:space="preserve" aria-hidden="true"><tspan x="153.195" dy="0">both</tspan></text></g><g id="n-override" class="n sh-rect Critical" role="group" aria-label="override"><path class="n-shape g-a3eb2971 s-1a7aa378d77c4fdd" d="M 232.547 60 h 72 v 36 h -72 Z"/><text class="n-title g-c4cad93e t-00160cd658b988ec" x="268.555" y="79.95" text-anchor="middle" xml:space="preserve" aria-hidden="true"><tspan x="268.555" dy="0">override</tspan></text></g><g id="n-routed" class="n sh-rect Router" role="group" aria-label="routed"><path class="n-shape g-8ab423a0 s-e3619467c1bd3034" d="M 0.922 120 h 72 v 36 h -72 Z"/><text class="n-title g-c4cad93e t-00160cd658b988ec" x="36.93" y="139.95" text-anchor="middle" xml:space="preserve" aria-hidden="true"><tspan x="36.93" dy="0">routed</tspan></text></g><g id="n-routedOverride" class="n sh-rect Router" role="group" aria-label="routedOverride"><path class="n-shape g-8ab423a0 s-e3619467c1bd3034" d="M 97.859 120 h 110.703 v 36 h -110.703 Z"/><text class="n-title g-c4cad93e t-00160cd658b988ec" x="153.211" y="139.95" text-anchor="middle" xml:space="preserve" aria-hidden="true"><tspan x="153.211" dy="0">routedOverride</tspan></text></g></g><g class="L-labels"></g></svg>
