<svg xmlns="http://www.w3.org/2000/svg" xmlns:xlink="http://www.w3.org/1999/xlink" class="sgl" data-sgl="1.0" width="370.594" height="216.609" viewBox="0 0 370.594 216.609" role="img" aria-labelledby="sgl-t sgl-d"><title id="sgl-t">Diagram</title><desc id="sgl-d">7 nodes, 6 connections, 0 groups.</desc><style>.canvas{fill:#0E131C}
.c-shape,.n-shape{stroke-linejoin:round}
.e-path{fill:none;stroke-linecap:round}
.el-plate{stroke:none}
.n-port{stroke:none}
text{white-space:pre}
.g-8ab423a0{stroke-width:1.5px}
.g-c4cad93e{font-family:Inter, system-ui, -apple-system, &apos;Segoe UI&apos;, Roboto, sans-serif;font-size:13px;font-weight:500}
.mf-61761734cd8c29d8{fill:#4A5768}
.s-14f885cba82beb49{fill:#171E2B;stroke:#4A5768}
.s-407a53cf7a74ec49{fill:#10161F;stroke:#4A5768}
.s-49f77accf2f56b31{fill:#171E2B;stroke:#4A5768}
.s-5cbc6a74dde5beb9{fill:#171E2B;stroke:#4A5768}
.s-61761734cd8c29d8{stroke:#4A5768}
.s-659f431a5a5a3c3f{fill:#171E2B;stroke:#4A5768}
.s-f62179e989faebc1{fill:#171E2B;stroke:#4A5768}
.s-f87f15f458f0b195{fill:#171E2B;stroke:#4A5768}
.t-5e011169d32131cb{fill:#E4E9F1}</style><defs><marker id="m-triangle-8-61761734cd8c29d8" markerUnits="userSpaceOnUse" markerWidth="8" markerHeight="6" refX="0" refY="3" orient="auto"><path class="mf-61761734cd8c29d8" d="M0 0L8 3L0 6Z" /></marker></defs><rect class="canvas" x="0" y="0" width="370.594" height="216.609" aria-hidden="true"/><g class="L-containers"></g><g class="L-edges"><g id="e-f91c1eaffada002d" class="e" role="graphics-symbol" aria-label="r to n"><path class="e-path g-8ab423a0 s-61761734cd8c29d8" d="M113.859 35.953L165.094 35.953" marker-end="url(#m-triangle-8-61761734cd8c29d8)"/></g><g id="e-c42f1463e6ce666e" class="e" role="graphics-symbol" aria-label="n to e"><path class="e-path g-8ab423a0 s-61761734cd8c29d8" d="M245.094 35.953L270.484 35.953" marker-end="url(#m-triangle-8-61761734cd8c29d8)"/></g><g id="e-089b59e4c2559d5a" class="e" role="graphics-symbol" aria-label="e to d"><path class="e-path g-8ab423a0 s-61761734cd8c29d8" d="M283.188 45.563L121.578 92.188" marker-end="url(#m-triangle-8-61761734cd8c29d8)"/></g><g id="e-b8b94d9c87b423ed" class="e" role="graphics-symbol" aria-label="d to h"><path class="e-path g-8ab423a0 s-61761734cd8c29d8" d="M139.703 104.797L155.703 104.797" marker-end="url(#m-triangle-8-61761734cd8c29d8)"/></g><g id="e-27869b874f0eb5ce" class="e" role="graphics-symbol" aria-label="h to c"><path class="e-path g-8ab423a0 s-61761734cd8c29d8" d="M254.484 104.797L272.531 104.797" marker-end="url(#m-triangle-8-61761734cd8c29d8)"/></g><g id="e-1d5f2fb993e74410" class="e" role="graphics-symbol" aria-label="c to p"><path class="e-path g-8ab423a0 s-61761734cd8c29d8" d="M280.531 115.719L122.078 163.75" marker-end="url(#m-triangle-8-61761734cd8c29d8)"/></g></g><g class="L-nodes"><g id="n-r" class="n sh-rect" role="group" aria-label="rect"><path class="n-shape g-8ab423a0 s-f87f15f458f0b195" d="M 41.859 17.953 h 72 v 36 h -72 Z"/><text class="n-title g-c4cad93e t-5e011169d32131cb" x="77.852" y="37.903" text-anchor="middle" xml:space="preserve" aria-hidden="true"><tspan x="77.852" dy="0">rect</tspan></text></g><g id="n-n" class="n sh-round" role="group" aria-label="round"><path class="n-shape g-8ab423a0 s-14f885cba82beb49" d="M 179.094 17.953 H 239.094 a 6 6 0 0 1 6 6 V 47.953 a 6 6 0 0 1 -6 6 H 179.094 a 6 6 0 0 1 -6 -6 V 23.953 a 6 6 0 0 1 6 -6 Z"/><text class="n-title g-c4cad93e t-5e011169d32131cb" x="209.086" y="37.903" text-anchor="middle" xml:space="preserve" aria-hidden="true"><tspan x="209.086" dy="0">round</tspan></text></g><g id="n-e" class="n sh-ellipse" role="group" aria-label="ellipse"><path class="n-shape g-8ab423a0 s-659f431a5a5a3c3f" d="M 278.484 35.953 A 38.055 19.953 0 0 1 354.594 35.953 A 38.055 19.953 0 0 1 278.484 35.953 Z"/><text class="n-title g-c4cad93e t-5e011169d32131cb" x="316.531" y="37.903" text-anchor="middle" xml:space="preserve" aria-hidden="true"><tspan x="316.531" dy="0">ellipse</tspan></text></g><g id="n-d" class="n sh-diamond" role="group" aria-label="diamond"><path class="n-shape g-8ab423a0 s-49f77accf2f56b31" d="M 77.852 79.906 L 139.703 104.805 L 77.852 129.703 L 16 104.805 Z"/><text class="n-title g-c4cad93e t-5e011169d32131cb" x="77.852" y="106.747" text-anchor="middle" xml:space="preserve" aria-hidden="true"><tspan x="77.852" dy="0">diamond</tspan></text></g><g id="n-h" class="n sh-hexagon" role="group" aria-label="hexagon"><path class="n-shape g-8ab423a0 s-5cbc6a74dde5beb9" d="M 181.703 86.797 L 236.469 86.797 L 254.469 104.797 L 236.469 122.797 L 181.703 122.797 L 163.703 104.797 Z"/><text class="n-title g-c4cad93e t-5e011169d32131cb" x="209.094" y="106.747" text-anchor="middle" xml:space="preserve" aria-hidden="true"><tspan x="209.094" dy="0">hexagon</tspan></text></g><g id="n-c" class="n sh-cylinder" role="group" aria-label="cylinder"><path class="n-shape g-8ab423a0 s-407a53cf7a74ec49" d="M 280.531 87.906 A 36 8 0 0 1 352.531 87.906 L 352.531 121.703 A 36 8 0 0 1 280.531 121.703 Z M 352.531 87.906 A 36 8 0 0 1 280.531 87.906"/><text class="n-title g-c4cad93e t-5e011169d32131cb" x="316.531" y="109.575" text-anchor="middle" xml:space="preserve" aria-hidden="true"><tspan x="316.531" dy="0">cylinder</tspan></text></g><g id="n-p" class="n sh-package" role="group" aria-label="package"><path class="n-shape g-8ab423a0 s-f62179e989faebc1" d="M 41.281 153.703 L 66.88 153.703 L 66.88 167.703 L 114.422 167.703 L 114.422 200.609 L 41.281 200.609 Z"/><text class="n-title g-c4cad93e t-5e011169d32131cb" x="77.852" y="186.106" text-anchor="middle" xml:space="preserve" aria-hidden="true"><tspan x="77.852" dy="0">package</tspan></text></g></g><g class="L-labels"></g></svg>
